<svg xmlns="http://www.w3.org/2000/svg" viewBox="0 0 64 64">
  <defs>
    <linearGradient id="bg" x1="0%" y1="0%" x2="100%" y2="100%">
      <stop offset="0%" style="stop-color:#0d9488;stop-opacity:1" />
      <stop offset="100%" style="stop-color:#10b981;stop-opacity:1" />
    </linearGradient>
  </defs>
  
  <!-- Fundo com gradiente -->
  <rect width="64" height="64" rx="12" fill="url(#bg)"/>
  
  <!-- Cruz médica simplificada -->
  <rect x="28" y="16" width="8" height="32" rx="2" fill="white" opacity="0.9"/>
  <rect x="16" y="28" width="32" height="8" rx="2" fill="white" opacity="0.9"/>
  
  <!-- Círculo do WhatsApp -->
  <circle cx="44" cy="44" r="14" fill="white" opacity="0.95"/>
  <path d="M44 32c-6.6 0-12 5.4-12 12 0 2.1 0.6 4.1 1.5 5.8L32 56l6.4-1.5c1.6 0.9 3.5 1.5 5.6 1.5 6.6 0 12-5.4 12-12s-5.4-12-12-12zm6 9.5c0.3 0.5 0.3 1.1 0.1 1.7-0.5 1.3-1.5 2.1-2.8 2.4-0.8 0.2-1.8 0.3-2.7-0.2-0.6-0.3-1.1-0.6-1.6-1-2.3-1.7-3.7-4.1-3.8-4.3s-0.9-1.2-0.9-2.3c0-1.1 0.6-1.6 0.8-1.8 0.2-0.2 0.5-0.3 0.7-0.3h0.5c0.2 0 0.4 0 0.6 0.4 0.2 0.5 0.7 1.7 0.8 1.8 0.1 0.1 0.1 0.3 0 0.4-0.1 0.2-0.2 0.3-0.3 0.4-0.1 0.1-0.2 0.3-0.3 0.4-0.1 0.1-0.2 0.2-0.1 0.4 0.1 0.2 0.6 1 1.3 1.6 0.9 0.8 1.6 1 1.9 1.1 0.2 0.1 0.4 0.1 0.5-0.1 0.1-0.2 0.6-0.7 0.8-0.9 0.2-0.2 0.3-0.2 0.6-0.1 0.2 0.1 1.4 0.7 1.7 0.8 0.2 0.1 0.4 0.2 0.5 0.3z" fill="#0d9488"/>
</svg> 